<svg width="11" height="12" fill="none" xmlns="http://www.w3.org/2000/svg"><path fill-rule="evenodd" clip-rule="evenodd" d="M9.326 11.175H3.017v-8.15h3.694v2.618h2.615v5.532zM7.53 3.194l1.625 1.622H7.53V3.194zm2.548 1.384a.275.275 0 0 1 .073.184v6.464a.774.774 0 0 1-.774.774H2.968a.774.774 0 0 1-.774-.774V2.977c0-.428.346-.774.774-.774h4.623a.28.28 0 0 1 .2.084v.001l2.275 2.274.003.004.005.005.003.007zM.948 8.972c.228 0 .413.185.413.413v.003a.412.412 0 0 1-.413.41H.774A.774.774 0 0 1 0 9.022V.774C0 .347.347 0 .774 0h4.623c.078 0 .15.032.2.085l.598.598a.012.012 0 0 0-.002.003.416.416 0 0 1-.007.571.415.415 0 0 1-.588-.004l-.43-.431H.822v8.15h.125z" fill="#F6F6F6"/></svg>