<svg width="40" height="41" fill="none" xmlns="http://www.w3.org/2000/svg"><path d="M31.206 24.79l-1.663-1.755c1.248-2.665.83-5.94-1.31-8.2l-8.441-8.912c-2.794-2.95-7.468-3.077-10.418-.283-2.95 2.794-3.076 7.468-.282 10.418l1.662 1.755c-1.247 2.666-.83 5.94 1.31 8.2l8.442 8.912c2.793 2.95 7.467 3.077 10.417.283s3.077-7.467.283-10.417zm-8.91 8.439l-8.44-8.912a4.901 4.901 0 0 1-1.207-4.504l4.88 5.154c2.628 2.773 6.91 3.05 9.867.753l-1.713-1.81a4.906 4.906 0 0 1-6.365-.643l-3.503-3.7-1.918-2.023-1.696-1.792-1.015-1.072-.303-.319a4.909 4.909 0 0 1 .188-6.93 4.909 4.909 0 0 1 6.93.189l8.438 8.908a4.901 4.901 0 0 1 1.207 4.504l-4.881-5.153c-2.627-2.774-6.91-3.05-9.867-.754l1.714 1.81a4.906 4.906 0 0 1 6.364.644l3.12 3.293 2.307 2.436 1.697 1.791.624.66.693.731a4.909 4.909 0 0 1-.188 6.93 4.915 4.915 0 0 1-6.932-.191z" fill="#F6F6F6"/></svg>