<svg width="20" height="20" fill="none" xmlns="http://www.w3.org/2000/svg"><path d="M6.51 7.91a.867.867 0 0 0-1.228-.06.893.893 0 0 0-.058 1.243L8.76 12.97c.146.178.38.296.613.296h.03a.792.792 0 0 0 .613-.266l8.913-9.025c.322-.355.322-.917-.03-1.243a.857.857 0 0 0-1.197 0l-8.27 8.404L6.51 7.91z" fill="currentColor"/><path d="M19.074 8.652c-.525 0-.926.382-.926.882 0 4.297-3.642 7.77-8.148 7.77s-8.148-3.473-8.148-7.77c0-4.296 3.642-7.768 8.148-7.768.525 0 .926-.383.926-.883S10.525 0 10 0C4.475 0 0 4.267 0 9.534c0 5.268 4.475 9.535 10 9.535s10-4.267 10-9.535c0-.5-.401-.882-.926-.882z" fill="currentColor"/></svg>
